<svg xmlns="http://www.w3.org/2000/svg" viewBox="0 0 256 256">
  <rect width="256" height="256" fill="#fff1d8"/>
  <circle cx="128" cy="127" r="75" fill="#6f3b22"/>
  <path d="M57 112c3-51 36-83 80-79 38 4 64 33 64 79-26-27-58-35-96-23-21 6-37 14-48 23Z" fill="#6f3b22"/>
  <circle cx="128" cy="130" r="51" fill="#e0a17a"/>
  <path d="M77 112c28-5 53-20 73-44 12 23 26 37 43 44-8-42-36-68-70-68-32 0-53 27-46 68Z" fill="#7a4125"/>
  <circle cx="109" cy="131" r="5" fill="#2a1d19"/>
  <circle cx="149" cy="131" r="5" fill="#2a1d19"/>
  <path d="M116 156c9 8 24 8 33 0" fill="none" stroke="#874a34" stroke-width="6" stroke-linecap="round"/>
  <path d="M50 256c8-44 40-72 78-72s70 28 78 72Z" fill="#9a5a20"/>
  <circle cx="83" cy="142" r="5" fill="#efb290" opacity=".7"/>
  <circle cx="173" cy="142" r="5" fill="#efb290" opacity=".7"/>
</svg>
