<svg xmlns="http://www.w3.org/2000/svg" viewBox="0 0 256 256">
  <rect width="256" height="256" fill="#dce7f7"/>
  <circle cx="128" cy="119" r="67" fill="#3a2b28"/>
  <path d="M63 99c9-45 43-69 85-61 35 7 55 34 53 70-24-21-54-28-90-18-19 5-35 8-48 9Z" fill="#3a2b28"/>
  <circle cx="128" cy="127" r="51" fill="#b97657"/>
  <path d="M78 109c28-4 51-18 69-40 16 18 32 31 47 38-9-41-35-64-68-64-32 0-53 26-48 66Z" fill="#41312e"/>
  <circle cx="109" cy="128" r="5" fill="#241d1c"/>
  <circle cx="150" cy="128" r="5" fill="#241d1c"/>
  <path d="M114 153c10 8 27 8 37 0" fill="none" stroke="#633224" stroke-width="6" stroke-linecap="round"/>
  <path d="M51 256c8-46 40-74 77-74s69 28 77 74Z" fill="#2b4f84"/>
  <path d="M106 169c13 7 31 7 44 0 0 16-9 25-22 25s-22-9-22-25Z" fill="#3b2723" opacity=".25"/>
</svg>
