<svg xmlns="http://www.w3.org/2000/svg" viewBox="0 0 256 256">
  <rect width="256" height="256" fill="#f5e7fb"/>
  <circle cx="128" cy="128" r="75" fill="#3d263c"/>
  <path d="M57 112c4-53 39-84 82-79 38 4 62 34 62 82-27-29-62-38-101-24-18 6-33 13-43 21Z" fill="#3d263c"/>
  <circle cx="128" cy="130" r="51" fill="#d08d69"/>
  <path d="M77 111c29-5 54-20 75-45 12 24 25 38 41 44-10-42-36-67-70-66-32 1-53 27-46 67Z" fill="#4c304a"/>
  <circle cx="109" cy="132" r="5" fill="#231d20"/>
  <circle cx="149" cy="132" r="5" fill="#231d20"/>
  <path d="M116 156c9 8 24 8 33 0" fill="none" stroke="#7d4332" stroke-width="6" stroke-linecap="round"/>
  <path d="M50 256c8-45 40-73 78-73s70 28 78 73Z" fill="#b05a8f"/>
  <path d="M93 188c19 15 51 15 70 0v36H93Z" fill="#fff" opacity=".75"/>
</svg>
