<svg xmlns="http://www.w3.org/2000/svg" viewBox="0 0 256 256">
  <rect width="256" height="256" fill="#e9efe3"/>
  <circle cx="128" cy="120" r="67" fill="#2f2d2b"/>
  <path d="M64 99c10-46 44-69 84-61 33 7 54 32 54 68-25-21-55-27-90-17-18 5-34 8-48 10Z" fill="#2f2d2b"/>
  <circle cx="128" cy="128" r="51" fill="#c98a65"/>
  <path d="M80 108c28-3 51-17 69-39 15 17 30 29 45 36-10-39-35-62-68-62-31 0-51 25-46 65Z" fill="#393532"/>
  <circle cx="109" cy="129" r="5" fill="#201d1b"/>
  <circle cx="150" cy="129" r="5" fill="#201d1b"/>
  <path d="M115 154c10 8 26 8 36 0" fill="none" stroke="#75402f" stroke-width="6" stroke-linecap="round"/>
  <path d="M51 256c8-46 40-74 77-74s69 28 77 74Z" fill="#5f7f35"/>
  <path d="M106 169c13 7 31 7 44 0 0 16-9 25-22 25s-22-9-22-25Z" fill="#42251f" opacity=".22"/>
</svg>
