<svg xmlns="http://www.w3.org/2000/svg" viewBox="0 0 256 256">
  <rect width="256" height="256" fill="#ffe7e1"/>
  <circle cx="128" cy="128" r="76" fill="#7b352d"/>
  <path d="M57 112c4-53 39-84 82-79 38 5 63 35 62 83-28-30-63-39-102-25-18 6-33 13-42 21Z" fill="#7b352d"/>
  <circle cx="128" cy="130" r="51" fill="#d69370"/>
  <path d="M77 112c28-6 54-22 74-46 13 24 26 38 42 45-9-43-36-68-70-67-32 1-53 28-46 68Z" fill="#873c32"/>
  <circle cx="109" cy="132" r="5" fill="#281d1c"/>
  <circle cx="149" cy="132" r="5" fill="#281d1c"/>
  <path d="M116 156c9 8 24 8 33 0" fill="none" stroke="#844631" stroke-width="6" stroke-linecap="round"/>
  <path d="M50 256c8-45 40-73 78-73s70 28 78 73Z" fill="#d06b57"/>
  <circle cx="83" cy="143" r="5" fill="#efb295" opacity=".7"/>
  <circle cx="173" cy="143" r="5" fill="#efb295" opacity=".7"/>
</svg>
