<svg xmlns="http://www.w3.org/2000/svg" viewBox="0 0 256 256">
  <rect width="256" height="256" fill="#ececf6"/>
  <circle cx="128" cy="122" r="69" fill="#34324a"/>
  <path d="M63 101c9-47 44-72 86-64 34 7 56 34 53 71-24-23-56-30-92-19-18 5-33 9-47 12Z" fill="#34324a"/>
  <circle cx="128" cy="130" r="51" fill="#c48766"/>
  <path d="M79 110c29-4 53-18 70-41 15 18 31 31 47 38-9-41-36-64-70-64-31 0-52 26-47 67Z" fill="#403c58"/>
  <circle cx="109" cy="131" r="5" fill="#211c20"/>
  <circle cx="150" cy="131" r="5" fill="#211c20"/>
  <path d="M115 155c10 8 26 8 36 0" fill="none" stroke="#73402e" stroke-width="6" stroke-linecap="round"/>
  <path d="M51 256c8-46 40-74 77-74s69 28 77 74Z" fill="#5457a6"/>
  <path d="M96 187c18 17 46 17 64 0l-6 42h-52Z" fill="#f7f7fb" opacity=".85"/>
</svg>
